<svg width="330" height="186" xmlns="http://www.w3.org/2000/svg"
    xmlns:xlink="http://www.w3.org/1999/xlink" xml:space="preserve" overflow="hidden"><defs><clipPath id="clip0"><rect x="475" y="267" width="330" height="186"/></clipPath><linearGradient x1="614.899" y1="6.9541" x2="613.29" y2="109.146" gradientUnits="userSpaceOnUse" spreadMethod="pad" id="fill1"><stop offset="0" stop-color="#C2C2C2"/><stop offset="1" stop-color="#9F9F9F"/></linearGradient></defs><g clip-path="url(#clip0)" transform="translate(-475 -267)"><path d="M721.886 122.788C725.759 122.788 728.899 125.928 728.899 129.802L728.899 521.775C728.899 525.648 725.759 528.788 721.886 528.788L406.141 528.788C402.267 528.788 399.127 525.648 399.127 521.775L399.127 129.802C399.127 125.928 402.267 122.788 406.141 122.788Z" fill="#EEEEEE" transform="matrix(1 0 0 1.00203 75.9869 94.4072)"/><path d="M472.919 178.773C477.557 178.773 481.317 182.533 481.317 187.171L481.317 260.857C481.317 265.495 477.557 269.255 472.919 269.255L407.213 269.255C402.575 269.255 398.815 265.495 398.815 260.857L398.815 187.171C398.815 182.533 402.575 178.773 407.213 178.773Z" fill="#9F9F9F" transform="matrix(0.959441 -0.28191 0.281339 0.961389 119.764 285.833)"/><path d="M650.516 1.65004C653.055 1.65004 655.113 3.70812 655.113 6.24689L655.113 113.035C655.113 115.574 653.055 117.632 650.516 117.632L551.861 117.632C549.322 117.632 547.264 115.574 547.264 113.035L547.264 6.24689C547.264 3.70812 549.322 1.65005 551.861 1.65005Z" stroke="#FFFFFF" stroke-width="5.39877" stroke-linecap="round" stroke-linejoin="round" fill="url(#fill1)" transform="matrix(0.959551 0.281536 -0.280965 0.961498 89.4911 126.842)"/><path d="M46.6234 18.5392 131.427 18.5392 131.427 96.2446 46.6234 96.2446Z" stroke="#FFFFFF" stroke-width="2.25706" stroke-linecap="round" stroke-linejoin="round" fill="#CCCCCC" fill-rule="evenodd" transform="matrix(0.959551 0.281536 -0.280965 0.961499 583.103 265.061)"/><path d="M46.6234 18.5392 131.427 18.5392 131.427 54.8018 46.6234 54.8018Z" stroke="#FFFFFF" stroke-width="2.25706" stroke-linecap="round" stroke-linejoin="round" fill="#FFFFFF" fill-rule="evenodd" transform="matrix(0.959551 0.281536 -0.280965 0.961499 583.103 265.061)"/><path d="M51.8038 54.8019 58.4453 45.557 68.8977 37.7587 71.6404 40.966 73.991 34.2861 75.4072 33.7712 77.7057 28.9001 108.788 59.9823" stroke="#FFFFFF" stroke-width="2.25706" stroke-linecap="round" stroke-linejoin="round" fill="#CCCCCC" fill-rule="evenodd" transform="matrix(0.959551 0.281536 -0.280965 0.961499 583.103 265.061)"/><path d="M31.0823 10.3608C31.7891 13.2056 32.414 16.0708 32.9561 18.9515 33.3675 21.1378 33.7312 23.3331 34.0468 25.5353L30.2367 24.2989 22.2743 19.2193 23.1937 27.2361 22.9147 31.5163 24.6506 36.7618 37.2883 34.7318 51.8038 31.0823 43.5496 17.7111 41.8747 20.2898 37.1908 16.4693Z" stroke="#FFFFFF" stroke-width="2.25706" stroke-linecap="round" stroke-linejoin="round" fill="#B3B3B3" fill-rule="evenodd" transform="matrix(0.959551 0.281536 -0.280965 0.961499 622.632 296.012)"/><path d="M72.5253 59.9823 86.6676 47.1299 89.8631 45.4583 93.9472 37.8278 98.4272 34.0804 129.509 65.1627" stroke="#FFFFFF" stroke-width="2.25706" stroke-linecap="round" stroke-linejoin="round" fill="#CCCCCC" fill-rule="evenodd" transform="matrix(0.959551 0.281536 -0.280965 0.961499 583.103 265.061)"/><path d="M98.4272 34.0804 104.633 48.0524 104.633 53.2519 104.633 58.4513 108.511 61.8128C109.638 60.6989 110.954 59.7777 112.387 59.1009 114.947 57.8914 117.798 57.4847 120.532 56.7487 121.642 56.4499 122.761 56.0832 123.677 55.3892 123.911 55.2125 124.129 55.0158 124.329 54.8019L119.149 54.8019 112.151 47.7998 106.996 39.3524 105.225 40.8786Z" stroke="#FFFFFF" stroke-width="2.25706" stroke-linecap="round" stroke-linejoin="round" fill="#B3B3B3" fill-rule="evenodd" transform="matrix(0.959551 0.281536 -0.280965 0.961499 583.103 265.061)"/><path d="M72.5253 96.2449C72.4533 94.587 71.0027 93.2042 75.4825 90.9492 80.9792 88.1822 97.2219 84.752 101.756 80.5911 105.111 77.5128 89.597 74.0864 92.2556 70.3904 93.4611 68.7145 102.45 66.9421 106.441 65.1627 110.223 63.476 109.055 61.7431 111.863 59.9867 114.576 58.29 123.666 56.5722 124.329 54.8019 122.531 56.6188 112.443 58.3252 108.788 59.9824 104.931 61.7313 105.081 63.4239 100.252 65.0736 95.0503 66.8509 84.8592 68.6226 82.5167 70.3431 77.6103 73.9467 90.609 77.6992 85.3145 80.7038 78.1448 84.7727 59.5263 88.1799 51.8038 91.0646 46.4673 93.058 46.8983 94.1293 46.6234 96.2449" stroke="#FFFFFF" stroke-width="2.25706" stroke-linecap="round" stroke-linejoin="round" fill="#FFFFFF" fill-rule="evenodd" transform="matrix(0.959551 0.281536 -0.280965 0.961499 583.103 265.061)"/><text fill="#767676" font-family="Arial,Arial_MSFontService,sans-serif" font-weight="700" font-size="32" transform="matrix(0.999982 0 0 1.00201 558.485 507)">NO IMAGE</text><text fill="#767676" font-family="Arial,Arial_MSFontService,sans-serif" font-weight="700" font-size="32" transform="matrix(0.999982 0 0 1.00201 549.485 547)">AVAILABLE</text></g></svg>